# xmcd
#
# Track frame offsets: 
#        150
#        15864
#        31922
#        50309
#        72305
#        89462
#        109669
#        125067
#        140912
#        163124
#        183575
#        206715
#        232282
#        249447
#        269063
#        289702
#
# Disc length: 4048 seconds
#
# Revision: 0
# Processed by: cddbd v1.5.2PL0 Copyright (c) Steve Scherf et al.
# Submitted via: ExactAudioCopy v1.2
#
DISCID=f40fce10
DTITLE=Mississippi Heat - Cab Driving Man
DYEAR=2016
DGENRE=Blues
TTITLE0=Cupid Bound
TTITLE1=Cab Driving Man
TTITLE2=That Late Night Stuff
TTITLE3=Flowers On My Tombstone
TTITLE4=Icy Blue
TTITLE5=The Last Go Round
TTITLE6=Life Is Too Short
TTITLE7=Don't Mess Up A Good Thing
TTITLE8=Rosalie
TTITLE9=Luck Of The Draw
TTITLE10=Mama Kaila
TTITLE11=Music Is My Life
TTITLE12=Lonely Eyes
TTITLE13=Smooth Operator
TTITLE14=Can't Get Me No Traction
TTITLE15=Hey Pipo!
EXTD=
EXTT0=
EXTT1=
EXTT2=
EXTT3=
EXTT4=
EXTT5=
EXTT6=
EXTT7=
EXTT8=
EXTT9=
EXTT10=
EXTT11=
EXTT12=
EXTT13=
EXTT14=
EXTT15=
PLAYORDER=
